HIERARCHY
ROOT pelvis
{
	OFFSET 0.000000 0.000000 0.000000
	CHANNELS 6 Xposition Yposition Zposition Xrotation Yrotation Zrotation
	JOINT l_hip
	{
		OFFSET 0.195211 -0.245059 -0.022011
		CHANNELS 3 Xrotation Yrotation Zrotation
		JOINT l_knee
		{
			OFFSET 0.083896 -0.996307 -0.018298
			CHANNELS 3 Xrotation Yrotation Zrotation
			JOINT l_ankle
			{
				OFFSET -0.031606 -1.048662 -0.119000
				CHANNELS 3 Xrotation Yrotation Zrotation
				JOINT l_foot
				{
					OFFSET 0.063841 -0.149483 0.312863
					CHANNELS 3 Xrotation Yrotation Zrotation
					End Site
					{
						OFFSET 0.000000 0.000000 0.000000
					}
				}
			}
		}
	}
	JOINT r_hip
	{
		OFFSET -0.188785 -0.243354 -0.013119
		CHANNELS 3 Xrotation Yrotation Zrotation
		JOINT r_knee
		{
			OFFSET -0.098896 -1.013926 -0.025127
			CHANNELS 3 Xrotation Yrotation Zrotation
			JOINT r_ankle
			{
				OFFSET 0.038376 -1.049454 -0.114596
				CHANNELS 3 Xrotation Yrotation Zrotation
				JOINT r_foot
				{
					OFFSET -0.060300 -0.126955 0.322518
					CHANNELS 3 Xrotation Yrotation Zrotation
					End Site
					{
						OFFSET 0.000000 0.000000 0.000000
					}
				}
			}
		}
	}
	JOINT spine1
	{
		OFFSET -0.006861 0.282462 -0.060688
		CHANNELS 3 Xrotation Yrotation Zrotation
		JOINT spine2
		{
			OFFSET 0.009796 0.349212 -0.004686
			CHANNELS 3 Xrotation Yrotation Zrotation
			JOINT spine3
			{
				OFFSET 0.005545 0.134239 0.076232
				CHANNELS 3 Xrotation Yrotation Zrotation
				JOINT neck
				{
					OFFSET -0.005369 0.569656 -0.136135
					CHANNELS 3 Xrotation Yrotation Zrotation
					JOINT head
					{
						OFFSET 0.009621 0.170484 0.137338
						CHANNELS 3 Xrotation Yrotation Zrotation
						End Site
						{
							OFFSET 0.000000 0.000000 0.000000
						}
					}
				}
				JOINT l_collar
				{
					OFFSET 0.205981 0.322192 -0.100872
					CHANNELS 3 Xrotation Yrotation Zrotation
					JOINT l_shoulder
					{
						OFFSET 0.233388 0.086823 -0.019950
						CHANNELS 3 Xrotation Yrotation Zrotation
						JOINT l_elbow
						{
							OFFSET 0.687295 -0.032736 -0.075278
							CHANNELS 3 Xrotation Yrotation Zrotation
							JOINT l_wrist
							{
								OFFSET 0.651109 0.024639 0.000120
								CHANNELS 3 Xrotation Yrotation Zrotation
								JOINT l_hand
								{
									OFFSET 0.217934 -0.026487 -0.036124
									CHANNELS 3 Xrotation Yrotation Zrotation
									End Site
									{
										OFFSET 0.000000 0.000000 0.000000
									}
								}
							}
						}
					}
				}
				JOINT r_collar
				{
					OFFSET -0.210726 0.316244 -0.114374
					CHANNELS 3 Xrotation Yrotation Zrotation
					JOINT r_shoulder
					{
						OFFSET -0.244017 0.089684 -0.026814
						CHANNELS 3 Xrotation Yrotation Zrotation
						JOINT r_elbow
						{
							OFFSET -0.672913 -0.035979 -0.055153
							CHANNELS 3 Xrotation Yrotation Zrotation
							JOINT r_wrist
							{
								OFFSET -0.670689 0.023586 -0.009661
								CHANNELS 3 Xrotation Yrotation Zrotation
								JOINT r_hand
								{
									OFFSET -0.219937 -0.019827 -0.028502
									CHANNELS 3 Xrotation Yrotation Zrotation
									End Site
									{
										OFFSET 0.000000 0.000000 0.000000
									}
								}
							}
						}
					}
				}
			}
		}
	}
}
MOTION
Frames: 9
Frame Time: 0.016667
0.000000 0.000000 0.000000 0.000000 0.000000 0.000000 -12.691186 6.862061 26.873362 41.920308 4.646908 -3.416906 0.000000 0.000000 0.000000 0.000000 0.000000 0.000000 -41.368713 9.483081 30.674223 46.503061 5.483907 -2.227009 0.000000 0.000000 0.000000 0.000000 0.000000 0.000000 56.696528 -7.870941 -5.163809 12.873620 0.757017 -7.818043 -7.825265 3.848652 1.870659 -2.065418 2.463689 -11.649376 -27.468406 -9.570409 9.411810 -19.276953 -48.427909 -23.043021 -11.642120 -21.763634 -17.368814 -8.145260 -40.053447 15.135378 0.000000 0.000000 0.000000 0.000000 0.000000 0.000000 1.261980 52.091469 2.547856 -4.010660 18.046759 42.007688 43.341708 54.718312 -48.527478 0.000000 0.000000 0.000000 0.000000 0.000000 0.000000 
0.000000 0.000000 0.000000 0.000000 0.000000 0.000000 -11.965101 7.350839 27.129114 41.156089 4.862135 -3.257270 0.000000 0.000000 0.000000 0.000000 0.000000 0.000000 -40.703431 9.477267 31.001168 45.887044 5.628928 -2.157202 0.000000 0.000000 0.000000 0.000000 0.000000 0.000000 56.412723 -7.941883 -5.249121 13.083114 0.715188 -7.860329 -7.954090 3.881350 1.862916 -1.844067 2.743584 -11.936629 -27.568517 -9.184008 9.371751 -19.160954 -48.270019 -23.142474 -11.471951 -20.997337 -17.316131 -8.070652 -39.618860 15.323455 0.000000 0.000000 0.000000 0.000000 0.000000 0.000000 1.464232 51.924781 2.483119 -3.579859 17.752749 42.052762 45.634377 55.048570 -50.297379 0.000000 0.000000 0.000000 0.000000 0.000000 0.000000 
0.000000 0.000000 0.000000 0.000000 0.000000 0.000000 -11.201480 7.814425 27.295670 40.408741 5.099498 -3.135255 0.000000 0.000000 0.000000 0.000000 0.000000 0.000000 -40.029768 9.530920 31.259842 45.320094 5.721032 -2.096516 0.000000 0.000000 0.000000 0.000000 0.000000 0.000000 56.118835 -8.002546 -5.298129 13.335053 0.700101 -7.951786 -8.076153 3.904753 1.826650 -1.614087 2.947146 -12.145961 -27.646288 -8.792315 9.305293 -19.027604 -48.025222 -23.398852 -11.303401 -20.249159 -17.214283 -8.232315 -39.626555 15.419166 0.000000 0.000000 0.000000 0.000000 0.000000 0.000000 1.666064 51.774795 2.480039 -3.172033 17.510059 41.987586 47.527064 55.617275 -51.845652 0.000000 0.000000 0.000000 0.000000 0.000000 0.000000 
0.000000 0.000000 0.000000 0.000000 0.000000 0.000000 -10.401693 8.238279 27.339187 39.677169 5.316717 -3.022390 0.000000 0.000000 0.000000 0.000000 0.000000 0.000000 -39.302278 9.630323 31.396065 44.762461 5.791975 -2.048789 0.000000 0.000000 0.000000 0.000000 0.000000 0.000000 55.816240 -8.051465 -5.299047 13.644612 0.687277 -8.067690 -8.169122 3.900721 1.769968 -1.410403 3.078102 -12.257427 -27.704510 -8.390989 9.206001 -18.892178 -47.706849 -23.780782 -11.175836 -19.555504 -17.105389 -8.442810 -40.026254 15.546919 0.000000 0.000000 0.000000 0.000000 0.000000 0.000000 1.798839 51.613880 2.555562 -2.805240 17.319299 41.850597 49.136716 56.327424 -53.244345 0.000000 0.000000 0.000000 0.000000 0.000000 0.000000 
0.000000 0.000000 0.000000 0.000000 0.000000 0.000000 -9.631933 8.600228 27.264002 39.020906 5.475100 -2.909487 0.000000 0.000000 0.000000 0.000000 0.000000 0.000000 -38.543622 9.751276 31.404027 44.226970 5.894650 -2.027865 0.000000 0.000000 0.000000 0.000000 0.000000 0.000000 55.505769 -8.074040 -5.256712 13.960383 0.678961 -8.191812 -8.209676 3.869660 1.704717 -1.245345 3.104617 -12.294619 -27.729947 -7.984051 9.101220 -18.737792 -47.313136 -24.164700 -11.081800 -18.950108 -17.165777 -8.422352 -40.668943 15.891918 0.000000 0.000000 0.000000 0.000000 0.000000 0.000000 1.858860 51.396680 2.630931 -2.476179 17.154221 41.743937 50.713573 56.975632 -54.669769 0.000000 0.000000 0.000000 0.000000 0.000000 0.000000 
0.000000 0.000000 0.000000 0.000000 0.000000 0.000000 -8.940214 8.903988 27.089035 38.474242 5.572029 -2.818274 0.000000 0.000000 0.000000 0.000000 0.000000 0.000000 -37.781794 9.876733 31.305398 43.756729 6.040844 -2.055643 0.000000 0.000000 0.000000 0.000000 0.000000 0.000000 55.206432 -8.051822 -5.176690 14.217417 0.685045 -8.325729 -8.188818 3.820894 1.639755 -1.094969 3.002179 -12.301772 -27.718565 -7.595448 9.028388 -18.549231 -46.840292 -24.442484 -11.008494 -18.463856 -17.563624 -8.091870 -41.441853 16.511761 0.000000 0.000000 0.000000 0.000000 0.000000 0.000000 1.889914 51.083308 2.613647 -2.165816 16.991930 41.754229 52.498760 57.462148 -56.322508 0.000000 0.000000 0.000000 0.000000 0.000000 0.000000 
0.000000 0.000000 0.000000 0.000000 0.000000 0.000000 -8.334765 9.157760 26.828731 38.082621 5.597348 -2.756180 0.000000 0.000000 0.000000 0.000000 0.000000 0.000000 -37.022325 9.993352 31.110962 43.369532 6.214364 -2.145966 0.000000 0.000000 0.000000 0.000000 0.000000 0.000000 54.914583 -7.975417 -5.077008 14.399030 0.713286 -8.462801 -8.105030 3.767581 1.585829 -0.937599 2.756502 -12.318143 -27.666459 -7.237800 9.011854 -18.343443 -46.308333 -24.605503 -10.954679 -18.124859 -18.334668 -7.694225 -42.263669 17.250997 0.000000 0.000000 0.000000 0.000000 0.000000 0.000000 1.918293 50.686927 2.492998 -1.860957 16.826889 41.873536 54.395997 57.938406 -58.141242 0.000000 0.000000 0.000000 0.000000 0.000000 0.000000 
0.000000 0.000000 0.000000 0.000000 0.000000 0.000000 -7.809139 9.368701 26.502976 37.910200 5.539509 -2.710566 0.000000 0.000000 0.000000 0.000000 0.000000 0.000000 -36.228319 10.097628 30.805683 43.047838 6.388285 -2.304687 0.000000 0.000000 0.000000 0.000000 0.000000 0.000000 54.620325 -7.852510 -4.969343 14.540272 0.750717 -8.592059 -7.978090 3.712420 1.546050 -0.767674 2.383993 -12.360603 -27.565375 -6.880714 9.052742 -18.141263 -45.748966 -24.721322 -10.935214 -17.913515 -19.406390 -7.441402 -43.110523 18.003522 0.000000 0.000000 0.000000 0.000000 0.000000 0.000000 1.938306 50.253106 2.327867 -1.553954 16.646783 42.046522 56.250561 58.512294 -59.994581 0.000000 0.000000 0.000000 0.000000 0.000000 0.000000 
0.000000 0.000000 0.000000 0.000000 0.000000 0.000000 -7.355872 9.530391 26.108266 37.969711 5.428130 -2.687303 0.000000 0.000000 0.000000 0.000000 0.000000 0.000000 -35.367949 10.212258 30.377732 42.758301 6.553569 -2.520900 0.000000 0.000000 0.000000 0.000000 0.000000 0.000000 54.313669 -7.698606 -4.841367 14.685826 0.780101 -8.730760 -7.828378 3.653561 1.494584 -0.601009 1.957080 -12.400126 -27.405692 -6.488795 9.105818 -17.936212 -45.154691 -24.862159 -10.930783 -17.755356 -20.666763 -7.123973 -44.069685 18.928029 0.000000 0.000000 0.000000 0.000000 0.000000 0.000000 1.942942 49.804979 2.167066 -1.260804 16.449329 42.246762 58.111275 59.119718 -61.940741 0.000000 0.000000 0.000000 0.000000 0.000000 0.000000 
